<?xml version="1.0" encoding="UTF-8" standalone="no"?>
<!-- Created with Inkscape (http://www.inkscape.org/) -->

<svg
   width="19.998341mm"
   height="14.404412mm"
   viewBox="0 0 19.998341 14.404412"
   version="1.1"
   id="svg1"
   inkscape:export-filename="logo.svg"
   inkscape:export-xdpi="96"
   inkscape:export-ydpi="96"
   xmlns:inkscape="http://www.inkscape.org/namespaces/inkscape"
   xmlns:sodipodi="http://sodipodi.sourceforge.net/DTD/sodipodi-0.dtd"
   xmlns="http://www.w3.org/2000/svg"
   xmlns:svg="http://www.w3.org/2000/svg">
  <sodipodi:namedview
     id="namedview1"
     pagecolor="#64d08d"
     bordercolor="#000000"
     borderopacity="0.25"
     inkscape:showpageshadow="2"
     inkscape:pageopacity="0.0"
     inkscape:pagecheckerboard="0"
     inkscape:deskcolor="#d1d1d1"
     inkscape:document-units="mm"
     inkscape:zoom="8.0675645"
     inkscape:cx="144.83925"
     inkscape:cy="123.33338"
     inkscape:window-width="2560"
     inkscape:window-height="1370"
     inkscape:window-x="1913"
     inkscape:window-y="-6"
     inkscape:window-maximized="1"
     inkscape:current-layer="layer1"
     inkscape:export-bgcolor="#ffffff00" />
  <defs
     id="defs1" />
  <g
     inkscape:label="Capa 1"
     inkscape:groupmode="layer"
     id="layer1"
     transform="translate(-22.341544,-20.818309)">
    <path
       d="m 35.493208,17.973796 -3.754382,10.31416 h -1.828703 l -3.754382,-10.31416 h 1.468504 l 3.234864,9.074244 3.234864,-9.074244 z m 2.860811,1.281477 h -1.468503 v -1.350747 h 1.468503 z m -0.08312,9.032683 h -1.302258 v -7.737352 h 1.302258 z"
       id="text1"
       style="font-size:14.1863px;fill:#ffffff;stroke-width:1.182"
       aria-label="Vi"
       inkscape:export-filename="logo.svg"
       inkscape:export-xdpi="96"
       inkscape:export-ydpi="96"
       transform="scale(0.85417364,1.1707222)" />
    <path
       d="m 37.881168,20.942242 -1.783181,5.12688 h -0.745622 l -1.771347,-5.12688 h 0.804799 l 1.365002,4.080391 1.353166,-4.080391 z m 4.237027,5.12688 h -0.737732 v -0.546194 q -0.09863,0.07803 -0.268266,0.220314 -0.165694,0.137695 -0.323497,0.220313 -0.18542,0.105565 -0.42607,0.174415 -0.24065,0.07343 -0.564149,0.07343 -0.595708,0 -1.009942,-0.458987 -0.414235,-0.458986 -0.414235,-1.170416 0,-0.582912 0.213035,-0.940922 0.21698,-0.362599 0.615434,-0.569143 0.4024,-0.206544 0.966547,-0.279981 0.564149,-0.07343 1.211143,-0.110157 v -0.133106 q 0,-0.293753 -0.09074,-0.486526 -0.0868,-0.192774 -0.252486,-0.302931 -0.157803,-0.105566 -0.378729,-0.142286 -0.220925,-0.03672 -0.461575,-0.03672 -0.291937,0 -0.65094,0.0918 -0.359003,0.08721 -0.741677,0.257033 h -0.03945 v -0.876664 q 0.216981,-0.06885 0.62727,-0.151466 0.41029,-0.08262 0.808743,-0.08262 0.465522,0 0.808744,0.09179 0.347168,0.08721 0.599654,0.302931 0.248541,0.211134 0.378729,0.546194 0.130188,0.335061 0.130188,0.830766 z m -0.737732,-1.262213 v -1.427448 q -0.339277,0.02295 -0.800853,0.06885 -0.45763,0.0459 -0.725897,0.133106 -0.319553,0.105565 -0.516807,0.330471 -0.197255,0.220313 -0.197255,0.610451 0,0.440627 0.228816,0.665531 0.228815,0.220314 0.698281,0.220314 0.390564,0 0.714061,-0.174416 0.323498,-0.179004 0.599654,-0.426858 z"
       id="text1-1"
       style="font-size:8.71482px;fill:#ffffff;stroke-width:0.726117"
       aria-label="va" />
    <path
       d="m 37.350193,32.698293 q 0,1.303522 -0.486892,1.913975 -0.486891,0.610451 -1.498417,0.610451 -0.335918,0 -0.656739,-0.05967 -0.317045,-0.05507 -0.626542,-0.160645 v -0.881255 h 0.03774 q 0.173621,0.08261 0.551057,0.201955 0.377435,0.123926 0.75487,0.123926 0.362337,0 0.600122,-0.105566 0.237784,-0.105565 0.369886,-0.293751 0.132103,-0.179005 0.188718,-0.431448 0.05662,-0.252442 0.05662,-0.564553 v -0.468167 q -0.32082,0.312112 -0.615219,0.468167 -0.290626,0.151466 -0.743548,0.151466 -0.75487,0 -1.200244,-0.660941 -0.441599,-0.66553 -0.441599,-1.872665 0,-0.66094 0.150974,-1.138287 0.154748,-0.481936 0.418954,-0.830765 0.245332,-0.32588 0.596347,-0.504885 0.351014,-0.183595 0.698255,-0.183595 0.366113,0 0.611445,0.0918 0.249108,0.08721 0.524635,0.270802 l 0.04529,-0.220314 h 0.66428 z M 36.640614,31.872117 V 29.07689 q -0.283076,-0.156056 -0.528409,-0.220314 -0.241558,-0.06885 -0.483118,-0.06885 -0.585023,0 -0.920942,0.477347 -0.335917,0.477345 -0.335917,1.386138 0,0.862895 0.249107,1.308112 0.249108,0.445217 0.826584,0.445217 0.309497,0 0.618994,-0.142285 0.313271,-0.146877 0.573701,-0.390138 z m 5.699273,-1.152056 q 0,1.253034 -0.52841,1.978232 -0.528409,0.725199 -1.415382,0.725199 -0.894521,0 -1.422931,-0.725199 -0.524634,-0.725198 -0.524634,-1.978232 0,-1.253033 0.524634,-1.978232 0.52841,-0.729788 1.422931,-0.729788 0.886973,0 1.415382,0.729788 0.52841,0.725199 0.52841,1.978232 z m -0.732224,0 q 0,-0.996 -0.32082,-1.477936 -0.320821,-0.486526 -0.890748,-0.486526 -0.577475,0 -0.898295,0.486526 -0.317046,0.481936 -0.317046,1.477936 0,0.963872 0.32082,1.464168 0.32082,0.495705 0.894521,0.495705 0.566153,0 0.886973,-0.491116 0.324595,-0.495705 0.324595,-1.468757 z"
       id="text1-1-4"
       style="font-size:8.71482px;fill:#ff0000;stroke-width:0.710231"
       aria-label="go" />
    <path
       d="m 35.119355,25.047813 h -0.90212 v -0.82978 h 0.90212 z m -0.05106,5.54889 h -0.799993 v -4.753152 h 0.799993 z"
       id="path13"
       style="font-size:8.71482px;fill:#ff0000;stroke-width:0.726117"
       aria-label="i"
       transform="scale(0.92710421,1.0786274)" />
    <path
       style="fill:#ff0000;fill-rule:evenodd;stroke:none;stroke-width:1.182;stroke-dasharray:none;stroke-opacity:1"
       d="m 23.592173,21.038705 1.956655,12.073486 h 1.559594 l 2.018946,-12.070562 z"
       id="path10" />
    <path
       style="fill:#ff0000;fill-rule:evenodd;stroke:none;stroke-width:0.528364;stroke-dasharray:none;stroke-opacity:1"
       d="m 35.367045,26.073016 h 0.732596 z"
       id="path10-3"
       sodipodi:nodetypes="ccc" />
    <path
       style="fill:#ff0000;fill-rule:evenodd;stroke:none;stroke-width:1.182;stroke-dasharray:none;stroke-opacity:1"
       d="m 35.351847,26.065592 -0.963248,-5.122168 h -0.0011 l 2.714455,0.0017 -1.005601,5.115706 z"
       id="path11" />
    <rect
       style="fill:#ff0000;fill-rule:evenodd;stroke:none;stroke-width:1.182;stroke-dasharray:none;stroke-opacity:1"
       id="rect13"
       width="0.76481122"
       height="5.1180339"
       x="31.762403"
       y="27.868065" />
  </g>
</svg>
